<svg width="25" height="25" viewBox="0 0 25 25" fill="none" xmlns="http://www.w3.org/2000/svg">
<path d="M24.0011 12.247C23.8565 9.90702 23.0303 7.66051 21.6243 5.78442C20.2184 3.90834 18.2941 2.48469 16.0888 1.68899C13.8836 0.893296 11.4936 0.760333 9.21369 1.30649C6.93375 1.85266 4.86347 3.05407 3.25808 4.76262C1.65269 6.47117 0.582369 8.61216 0.179071 10.9217C-0.224228 13.2312 0.0571252 15.6082 0.988445 17.7597C1.91976 19.9112 3.46034 21.7432 5.42024 23.0297C7.38014 24.3163 9.67369 25.0012 12.0181 25H19.0011C20.3268 24.9987 21.5978 24.4715 22.5352 23.5341C23.4726 22.5967 23.9998 21.3257 24.0011 20V12.247ZM22.0011 20C22.0011 20.7956 21.6851 21.5587 21.1224 22.1213C20.5598 22.6839 19.7968 23 19.0011 23H12.0181C10.6071 22.9994 9.21197 22.7013 7.92383 22.1253C6.63568 21.5493 5.4834 20.7082 4.54213 19.657C3.5963 18.6063 2.88606 17.3655 2.45902 16.0178C2.03199 14.6701 1.89803 13.2467 2.06613 11.843C2.33156 9.62894 3.32632 7.56619 4.89357 5.97992C6.46082 4.39366 8.51143 3.37411 10.7221 3.082C11.1534 3.02795 11.5875 3.00056 12.0221 3C14.3526 2.99364 16.6109 3.8079 18.4011 5.3C19.4467 6.16894 20.3048 7.24115 20.9237 8.45163C21.5425 9.66211 21.909 10.9856 22.0011 12.342V20Z" fill="#A2A2C2"/>
<path d="M8.00113 10H12.0011C12.2663 10 12.5207 9.89464 12.7082 9.70711C12.8958 9.51957 13.0011 9.26522 13.0011 9C13.0011 8.73478 12.8958 8.48043 12.7082 8.29289C12.5207 8.10536 12.2663 8 12.0011 8H8.00113C7.73591 8 7.48156 8.10536 7.29402 8.29289C7.10649 8.48043 7.00113 8.73478 7.00113 9C7.00113 9.26522 7.10649 9.51957 7.29402 9.70711C7.48156 9.89464 7.73591 10 8.00113 10Z" fill="#A2A2C2"/>
<path d="M16.0011 12H8.00113C7.73591 12 7.48156 12.1054 7.29402 12.2929C7.10649 12.4804 7.00113 12.7348 7.00113 13C7.00113 13.2652 7.10649 13.5196 7.29402 13.7071C7.48156 13.8946 7.73591 14 8.00113 14H16.0011C16.2663 14 16.5207 13.8946 16.7082 13.7071C16.8958 13.5196 17.0011 13.2652 17.0011 13C17.0011 12.7348 16.8958 12.4804 16.7082 12.2929C16.5207 12.1054 16.2663 12 16.0011 12Z" fill="#A2A2C2"/>
<path d="M16.0011 16H8.00113C7.73591 16 7.48156 16.1054 7.29402 16.2929C7.10649 16.4804 7.00113 16.7348 7.00113 17C7.00113 17.2652 7.10649 17.5196 7.29402 17.7071C7.48156 17.8946 7.73591 18 8.00113 18H16.0011C16.2663 18 16.5207 17.8946 16.7082 17.7071C16.8958 17.5196 17.0011 17.2652 17.0011 17C17.0011 16.7348 16.8958 16.4804 16.7082 16.2929C16.5207 16.1054 16.2663 16 16.0011 16Z" fill="#A2A2C2"/>
</svg>
